<svg viewBox="0 0 1000 340" xmlns="http://www.w3.org/2000/svg" font-family="Segoe UI, Arial, sans-serif">
  <defs>
    <marker id="arrow" markerWidth="10" markerHeight="10" refX="8" refY="3" orient="auto">
      <path d="M0,0 L8,3 L0,6 Z" fill="#555"/>
    </marker>
  </defs>

  <rect width="1000" height="340" fill="#ffffff"/>

  <!-- Legend -->
  <rect x="20" y="15" width="14" height="14" fill="#c6efce"/>
  <text x="40" y="27" font-size="13" fill="#333">Concluído</text>
  <rect x="140" y="15" width="14" height="14" fill="#ffeb9c"/>
  <text x="160" y="27" font-size="13" fill="#333">Em andamento</text>
  <rect x="300" y="15" width="14" height="14" fill="#e6e6e6"/>
  <text x="320" y="27" font-size="13" fill="#333">Planejado</text>

  <!-- 1. Kaggle -->
  <rect x="20" y="80" width="140" height="70" rx="8" fill="#c6efce" stroke="#7ab87f"/>
  <text x="90" y="110" font-size="13" text-anchor="middle" fill="#222">Fonte de Dados</text>
  <text x="90" y="128" font-size="12" text-anchor="middle" fill="#444">Kaggle (kagglehub)</text>

  <!-- 2. Limpeza Python -->
  <rect x="200" y="80" width="150" height="70" rx="8" fill="#c6efce" stroke="#7ab87f"/>
  <text x="275" y="105" font-size="13" text-anchor="middle" fill="#222">Extração e Limpeza</text>
  <text x="275" y="122" font-size="12" text-anchor="middle" fill="#444">Python + pandas</text>
  <text x="275" y="138" font-size="12" text-anchor="middle" fill="#444">(notebook)</text>

  <!-- 3. Parquet -->
  <rect x="390" y="80" width="130" height="70" rx="8" fill="#c6efce" stroke="#7ab87f"/>
  <text x="455" y="110" font-size="13" text-anchor="middle" fill="#222">Dados Curados</text>
  <text x="455" y="128" font-size="12" text-anchor="middle" fill="#444">arquivo .parquet</text>

  <!-- 4. PySpark -->
  <rect x="560" y="80" width="150" height="70" rx="8" fill="#c6efce" stroke="#7ab87f"/>
  <text x="635" y="110" font-size="13" text-anchor="middle" fill="#222">Processamento</text>
  <text x="635" y="128" font-size="12" text-anchor="middle" fill="#444">PySpark</text>

  <!-- 5. Data Lake -->
  <rect x="750" y="30" width="220" height="70" rx="8" fill="#c6efce" stroke="#7ab87f"/>
  <text x="860" y="60" font-size="13" text-anchor="middle" fill="#222">Data Lake</text>
  <text x="860" y="78" font-size="12" text-anchor="middle" fill="#444">AWS S3</text>

  <!-- 6. Data Warehouse -->
  <rect x="750" y="120" width="220" height="70" rx="8" fill="#ffeb9c" stroke="#d9b64e"/>
  <text x="860" y="150" font-size="13" text-anchor="middle" fill="#222">Data Warehouse</text>
  <text x="860" y="168" font-size="12" text-anchor="middle" fill="#444">AWS Redshift</text>

  <!-- 7. Airflow orchestration (bottom, spanning) -->
  <rect x="200" y="240" width="580" height="60" rx="8" fill="#e6e6e6" stroke="#aaaaaa"/>
  <text x="490" y="265" font-size="13" text-anchor="middle" fill="#222">Orquestração com Apache Airflow</text>
  <text x="490" y="283" font-size="12" text-anchor="middle" fill="#888">(planejado — agenda e monitora todas as etapas acima)</text>

  <!-- IAM box -->
  <rect x="20" y="240" width="150" height="60" rx="8" fill="#c6efce" stroke="#7ab87f"/>
  <text x="95" y="266" font-size="13" text-anchor="middle" fill="#222">AWS IAM</text>
  <text x="95" y="283" font-size="12" text-anchor="middle" fill="#444">controle de acesso</text>

  <!-- Arrows -->
  <line x1="160" y1="115" x2="198" y2="115" stroke="#555" stroke-width="1.5" marker-end="url(#arrow)"/>
  <line x1="350" y1="115" x2="388" y2="115" stroke="#555" stroke-width="1.5" marker-end="url(#arrow)"/>
  <line x1="520" y1="115" x2="558" y2="115" stroke="#555" stroke-width="1.5" marker-end="url(#arrow)"/>
  <line x1="710" y1="100" x2="748" y2="75" stroke="#555" stroke-width="1.5" marker-end="url(#arrow)"/>
  <line x1="710" y1="130" x2="748" y2="155" stroke="#555" stroke-width="1.5" marker-end="url(#arrow)"/>
</svg>
